<svg id="Capa_1" data-name="Capa 1" xmlns="http://www.w3.org/2000/svg" viewBox="0 0 480 480"><title>1</title><path d="M319.66,298.11a14.66,14.66,0,0,1,10.58,4.76l79.9,86.56,11.75-10.86L367.81,320H368V104a40.05,40.05,0,0,0-40-40H296V80h32a24,24,0,0,1,24,24v8H296v16h56V302.87L342,292a30.52,30.52,0,0,0-22-9.88,29.32,29.32,0,0,0-6.35.41l6.15-24.59L326.25,232H336V216H320a8,8,0,0,0-7.76,6.06L305.76,248H184a8,8,0,0,0-7.76,9.94l16,64A8,8,0,0,0,200,328h92.53a30.18,30.18,0,0,0,3.78,5.39l6.27,7.06A8,8,0,0,1,296,344H192v16H296a24,24,0,0,0,17.31-7.49L343.05,386a81.42,81.42,0,0,0,7.69,61.47A23.93,23.93,0,0,1,328,464H168a24,24,0,0,1-24-24v-8H328V416H144V192H128V440a40.05,40.05,0,0,0,40,40H328a40,40,0,0,0,33.2-17.69,84.14,84.14,0,0,0,8.55,8.23l9.13,7.61,10.24-12.3L380,458.24a65.74,65.74,0,0,1-20.41-71.71,8,8,0,0,0-1.6-7.84l-49.7-55.92a14.84,14.84,0,0,1,.59-20.32A15.67,15.67,0,0,1,319.66,298.11ZM198.25,280l-4-16h22.69l2,16Zm8,32-4-16h18.69l2,16Zm50.69,0H239.06l-2-16h21.88Zm4-32H235.06l-2-16h29.88Zm27.6,32H273.06l2-16H293.6A30.72,30.72,0,0,0,288.54,312Zm9.21-32H277.06l2-16h22.69Z"/><circle cx="208" cy="384" r="16"/><circle cx="288" cy="384" r="16"/><path d="M248,0H40A32,32,0,0,0,8,32V144a32,32,0,0,0,32,32H248a32,32,0,0,0,32-32V32A32,32,0,0,0,248,0Zm16,144a16,16,0,0,1-16,16H40a16,16,0,0,1-16-16V32A16,16,0,0,1,40,16H248a16,16,0,0,1,16,16Z"/><rect x="40" y="40" width="144" height="16"/><path d="M236.27,91.32a24,24,0,0,0-24.33,0A23.71,23.71,0,0,0,200,88a24,24,0,0,0,0,48,23.68,23.68,0,0,0,11.94-3.3,24,24,0,0,0,24.33-41.38ZM200,120a8,8,0,1,1,8-8A8,8,0,0,1,200,120Zm24,0a7.59,7.59,0,0,1-1.42-.2,22.14,22.14,0,0,0,0-15.59A8.54,8.54,0,0,1,224,104a8,8,0,0,1,0,16Z"/><rect x="40" y="88" width="16" height="16"/><rect x="72" y="88" width="16" height="16"/><rect x="104" y="88" width="16" height="16"/><rect x="136" y="88" width="16" height="16"/><rect x="40" y="120" width="112" height="16"/><path d="M457.1,308.8l-67.2-74.19-11.85,10.73,67.24,74.27A39.89,39.89,0,0,1,456,346.85V480h16V346.85A55.67,55.67,0,0,0,457.1,308.8Z"/><path d="M267.56,201.34,256,209.05V192H240v17.05l-11.56-7.71-8.88,13.32,24,16a8,8,0,0,0,8.88,0l24-16Z"/></svg>