<svg id="Layer_1" data-name="Layer 1" xmlns="http://www.w3.org/2000/svg" viewBox="0 0 512 512"><title>2</title><g id="Outline"><path d="M488,456H464V352a40,40,0,0,0-40-40H405.12A72,72,0,0,0,432,256v-.8A64,64,0,0,0,400,136H381a8,8,0,0,0,0,16h19a48,48,0,0,1,32,83.68V192a8,8,0,0,0-8-8H352a8,8,0,0,0,0,16h64v56a56,56,0,0,1-112,0V200h16a8,8,0,0,0,0-16H296a8,8,0,0,0-8,8v43.68A48,48,0,0,1,272,200V184a8,8,0,0,0-16,0v16a64,64,0,0,0,8.88,32H24a8,8,0,0,0-8,8v80a8,8,0,0,0,16,0V248H256V392H184V368a40,40,0,0,0-80,0v24H32V352a8,8,0,0,0-16,0v48a8,8,0,0,0,8,8h80v16H80a8,8,0,0,0,0,16H208a8,8,0,0,1,8,8v8H24a8,8,0,0,0-8,8v32a8,8,0,0,0,16,0V472H480v24a8,8,0,0,0,16,0V464A8,8,0,0,0,488,456Zm-72-32h32v32H416ZM384,323.92a24,24,0,0,1-47.2,0A70.29,70.29,0,0,0,384,323.92ZM120,424V368a24,24,0,0,1,48,0v56Zm88,0H184V408h80a8,8,0,0,0,8-8V242.08a63.57,63.57,0,0,0,16,13.12v.8a72,72,0,0,0,26.88,56H296a8,8,0,0,0,0,16h24.8a40,40,0,0,0,78.4,0H424a24,24,0,0,1,24,24v56H416V376a8,8,0,0,0-16,0v80H320V376a8,8,0,0,0-16,0v32h-8a8,8,0,0,0,0,16h8v32H272V432a8,8,0,0,0-16,0v24H232v-8A24,24,0,0,0,208,424Z"/><circle cx="336" cy="232" r="8"/><circle cx="384" cy="232" r="8"/><path d="M126.72,75.28A8,8,0,0,0,120,69.84l-17.92-2.56-8-16a8,8,0,0,0-14.32,0l-8,16-18,2.56a7.89,7.89,0,0,0-4.4,13.44L62.48,96l-3,17.84A8.06,8.06,0,0,0,71,122.48L87,114l16,8.48a8.29,8.29,0,0,0,12.16-8.64L112,96l13-12.64A8,8,0,0,0,126.72,75.28ZM97.52,88a8,8,0,0,0-2.32,7.12l1,6.08L90.8,98.32a7.51,7.51,0,0,0-3.68-1,8.11,8.11,0,0,0-3.76,1l-5.44,2.88,1-6.08A8,8,0,0,0,76.64,88L72,83.36l6.08-.88a8,8,0,0,0,6-4.4l2.72-5.52,2.72,5.52a8,8,0,0,0,6,4.4l6.08.88Z"/><path d="M158.64,121.84a8,8,0,0,0,8.4.64L183,114l16,8.48a8.29,8.29,0,0,0,12.16-8.64L208,96l13-12.64a7.85,7.85,0,0,0-5-13.52l-17.92-2.56-8-16a8,8,0,0,0-14.32,0l-8,16-18,2.56a7.89,7.89,0,0,0-4.4,13.44L158.48,96l-3,17.84A8,8,0,0,0,158.64,121.84Zm16-39.36a8,8,0,0,0,6-4.4l2.72-5.52,2.72,5.52a8,8,0,0,0,6,4.4l6.08.88-4.4,4.24a8,8,0,0,0-2.32,7.12l1,6.08L187,97.92a7.51,7.51,0,0,0-3.68-1,8.11,8.11,0,0,0-3.76,1l-5.44,2.88,1-6.08a8,8,0,0,0-2.32-7.12L168,83.36Z"/><path d="M318.72,75.28A8,8,0,0,0,312,69.84l-17.92-2.56-8-16a8,8,0,0,0-14.32,0l-8,16-18,2.56a7.89,7.89,0,0,0-4.4,13.44L254.48,96l-3,17.84a8.06,8.06,0,0,0,11.6,8.64L279,114l16,8.48a8.29,8.29,0,0,0,12.16-8.64L304,96l13-12.64A8,8,0,0,0,318.72,75.28ZM289.52,88a8,8,0,0,0-2.32,7.12l1,6.08-5.44-2.88a7.51,7.51,0,0,0-3.68-1,8.11,8.11,0,0,0-3.76,1l-5.44,2.88,1-6.08A8,8,0,0,0,268.64,88L264,83.36l6.08-.88a8,8,0,0,0,6-4.4l2.72-5.52,2.72,5.52a8,8,0,0,0,6,4.4l6.08.88Z"/><path d="M56,160h5.44l78,54.56A8,8,0,0,0,152,208V152a8,8,0,0,0-16,0v40.64l-67.44-47.2A7.52,7.52,0,0,0,64,144H56a24,24,0,0,1-24-24V56A24,24,0,0,1,56,32H320a24,24,0,0,1,24,24v64a24,24,0,0,1-24,24H176a8,8,0,0,0,0,16H320a40,40,0,0,0,40-40V56a40,40,0,0,0-40-40H56A40,40,0,0,0,16,56v64A40,40,0,0,0,56,160Z"/><path d="M192,296a8,8,0,0,0,0-16H96a8,8,0,0,0,0,16Z"/></g></svg>