<svg id="Capa_1" data-name="Capa 1" xmlns="http://www.w3.org/2000/svg" viewBox="0 0 512 512"><title>3</title><path d="M328,36H216a8,8,0,0,0,0,16H328a8,8,0,0,0,0-16Z"/><path d="M288,36a8,8,0,0,0-8,8V84a8,8,0,0,0,16,0V44A8,8,0,0,0,288,36Z"/><path d="M288,76H256a8,8,0,0,0,0,16h32a8,8,0,0,0,0-16Z"/><path d="M256,36a8,8,0,0,0-8,8V84a8,8,0,0,0,16,0V44A8,8,0,0,0,256,36Z"/><path d="M216,196H120a8,8,0,0,0,0,16h96a8,8,0,0,0,0-16Z"/><path d="M328,180a8,8,0,0,0-8,8V324a8,8,0,0,0,16,0V188A8,8,0,0,0,328,180Z"/><path d="M504,380H480.17a8,8,0,0,0,0,16H504a8,8,0,0,0,0-16Z"/><path d="M504,380a8,8,0,0,0-8,8v32a8,8,0,0,0,16,0V388A8,8,0,0,0,504,380Z"/><path d="M80,412h0l-56,.17a8,8,0,0,0,0,16h0L80,428a8,8,0,0,0,0-16Z"/><path d="M496,340h-8a8,8,0,0,0,0,16h8a8,8,0,0,0,0-16Z"/><path d="M496,284a8,8,0,0,0-8,8v96a8,8,0,0,0,16,0V292A8,8,0,0,0,496,284Z"/><path d="M448,180H328a8,8,0,0,0,0,16H448a8,8,0,0,0,0-16Z"/><path d="M503.26,288.65l-48-104a8,8,0,1,0-14.52,6.7l48,104A8,8,0,0,0,496,300a7.83,7.83,0,0,0,3.34-.74A8,8,0,0,0,503.26,288.65Z"/><path d="M24,380a8,8,0,0,0-8,8v32.5a8,8,0,0,0,16,0V388A8,8,0,0,0,24,380Z"/><path d="M8,276a8,8,0,0,0-8,8V388a8,8,0,0,0,16,0V284A8,8,0,0,0,8,276Z"/><path d="M328,276H8a8,8,0,0,0,0,16H328a8,8,0,0,0,0-16Z"/><path d="M48,380H8a8,8,0,0,0,0,16H48a8,8,0,0,0,0-16Z"/><path d="M128,364a56,56,0,1,0,56,56A56.07,56.07,0,0,0,128,364Zm0,96a40,40,0,1,1,40-40A40,40,0,0,1,128,460Z"/><path d="M128,396a24,24,0,1,0,24,24A24,24,0,0,0,128,396Zm0,32a8,8,0,1,1,8-8A8,8,0,0,1,128,428Z"/><path d="M392,396a24,24,0,1,0,24,24A24,24,0,0,0,392,396Zm0,32a8,8,0,1,1,8-8A8,8,0,0,1,392,428Z"/><path d="M392,364a56,56,0,1,0,56,56A56.07,56.07,0,0,0,392,364Zm0,96a40,40,0,1,1,40-40A40,40,0,0,1,392,460Z"/><path d="M344.2,412H176a8,8,0,0,0,0,16H344.2a8,8,0,1,0,0-16Z"/><path d="M504,412H440a8,8,0,0,0,0,16h64a8,8,0,0,0,0-16Z"/><path d="M496,284H400a8,8,0,0,0,0,16h96a8,8,0,0,0,0-16Z"/><path d="M400,284a24,24,0,0,1-24-24,8,8,0,0,0-16,0,40,40,0,0,0,40,40,8,8,0,0,0,0-16Z"/><path d="M368,180a8,8,0,0,0-8,8v72a8,8,0,0,0,16,0V188A8,8,0,0,0,368,180Z"/><path d="M328,36a8,8,0,0,0-8,8V284a8,8,0,0,0,16,0V44A8,8,0,0,0,328,36Z"/><path d="M216,36a8,8,0,0,0-8,8V284a8,8,0,0,0,16,0V44A8,8,0,0,0,216,36Z"/><path d="M120,100a8,8,0,0,0-8,8V284a8,8,0,0,0,16,0V108A8,8,0,0,0,120,100Z"/><path d="M168,196a8,8,0,0,0-8,8v24a8,8,0,0,0,16,0V204A8,8,0,0,0,168,196Z"/><path d="M216,100H120a8,8,0,0,0,0,16h96a8,8,0,0,0,0-16Z"/><path d="M168,100a8,8,0,0,0-8,8v16a8,8,0,0,0,16,0V108A8,8,0,0,0,168,100Z"/><path d="M24,156a8,8,0,0,0-8,8V284a8,8,0,0,0,16,0V164A8,8,0,0,0,24,156Z"/><path d="M120,156H24a8,8,0,0,0,0,16h96a8,8,0,0,0,0-16Z"/><path d="M56,156a8,8,0,0,0-8,8v24a8,8,0,0,0,16,0V164A8,8,0,0,0,56,156Z"/><path d="M88,180H56a8,8,0,0,0,0,16H88a8,8,0,0,0,0-16Z"/><path d="M88,156a8,8,0,0,0-8,8v24a8,8,0,0,0,16,0V164A8,8,0,0,0,88,156Z"/></svg>