<svg id="Capa_1" data-name="Capa 1" xmlns="http://www.w3.org/2000/svg" viewBox="0 0 612.32 612.32"><title>4</title><path d="M187.57,359.46H548.46l63.86-227.94h-94L484.61,27.3,343.9,72.92l19.24,58.6h-6.62L321.78,27.3,181.07,72.92l19.25,58.6H125.09L109.47,69C101.6,37.8,74.35,15.68,43,15.68H0V41.8H43c19.49,0,36.49,13,41.73,32.62l69.11,270.42A56.59,56.59,0,0,0,130.21,391c0,31.24,26.12,57.36,57.36,57.36H539.34V422.19H187.57c-17,0-31.24-14.37-31.24-31.24,0-17.12,14.37-31.49,31.24-31.49ZM467.74,59.79l23.49,70.36H389.64L375.27,89.79Zm-162.83,0,23.49,70.36H226.81L212.44,89.79Zm273.55,96.48L529,333.47H177.2l-45.61-177.2Z"/><path d="M424.75,487.17a54.74,54.74,0,0,0,0,109.47c31.24,0,54.74-24.74,54.74-54.74A55,55,0,0,0,424.75,487.17Zm0,84.73c-17,0-30-14.37-30-30,0-17,14.37-30,30-30,17,0,30,13,30,30S440.37,571.9,424.75,571.9Z"/><path d="M224.06,487.17a54.74,54.74,0,1,0,54.73,54.73A55,55,0,0,0,224.06,487.17Zm0,84.73c-17,0-30-14.37-30-30,0-17,14.37-30,30-30s30,13,30,30S239.68,571.9,224.06,571.9Z"/></svg>